<?xml version="1.0" standalone="no"?>
<!DOCTYPE svg PUBLIC "-//W3C//DTD SVG 20010904//EN"
 "http://www.w3.org/TR/2001/REC-SVG-20010904/DTD/svg10.dtd">
<svg version="1.0" xmlns="http://www.w3.org/2000/svg"
 width="500.000000pt" height="500.000000pt" viewBox="0 0 500.000000 500.000000"
 preserveAspectRatio="xMidYMid meet">
<metadata>
Created by potrace 1.14, written by Peter Selinger 2001-2017
</metadata>
<g transform="translate(0.000000,500.000000) scale(0.100000,-0.100000)"
fill="#000000" stroke="none">
<path d="M2389 4546 c-2 -2 -38 -6 -79 -9 -152 -11 -378 -61 -530 -117 -151
-54 -365 -168 -454 -241 -6 -5 -52 -42 -101 -82 -279 -227 -488 -547 -620
-949 -68 -207 -86 -336 -87 -603 -1 -182 12 -307 48 -461 22 -97 81 -289 106
-342 33 -74 117 -245 131 -267 6 -11 27 -44 46 -75 161 -262 440 -509 751
-665 207 -104 387 -163 540 -180 36 -4 68 -9 73 -12 6 -4 309 -13 447 -14 102
0 492 96 590 146 30 15 101 47 157 70 288 121 603 419 795 752 120 208 232
520 267 743 26 165 31 384 12 540 -48 391 -231 813 -471 1084 -57 65 -165 170
-210 204 -19 15 -69 54 -110 87 -87 70 -211 143 -360 213 -181 84 -311 123
-527 158 -87 14 -404 30 -414 20z m-1517 -2791 c18 -22 49 -60 68 -85 36 -47
119 -138 204 -223 27 -27 94 -85 150 -129 168 -132 165 -125 89 -183 -50 -38
-55 -37 -120 11 -17 13 -35 24 -38 24 -4 0 -66 60 -137 133 -135 137 -222 255
-291 394 -30 61 -33 75 -22 86 24 25 62 14 97 -28z"/>
</g>
</svg>
